{"title":"Man.On.A.Ledge.2012.PL.BRRip.XviD-RLF","uid":7313361,"size":756220720,"categoryP":"video","categoryS":"movies","magnet":"?xt=urn:btih:f1e4b4e2796b73304d75172347917af19275293d&amp;dn=Man.On.A.Ledge.2012.PL.BRRip.XviD-RLF&amp;tr=udp%3A%2F%2Ftracker.openbittorrent.com%3A80&amp;tr=udp%3A%2F%2Fopen.demonii.com%3A1337&amp;tr=udp%3A%2F%2Ftracker.coppersurfer.tk%3A6969&amp;tr=udp%3A%2F%2Fexodus.desync.com%3A6969","seeders":2,"leechers":1,"uploader":"rlf-rls","files":-1,"time":1338408458,"description":"Man.On.A.Ledge.2012.PL.BRRip.XviD-RLF\n~~~~~~~~~~~~~~~~~~~~~~~~~~~~~~~~~~~~~\n\n                                            \nGENERAL\n\nComplete name: rlf-ledge-pl.avi\nFormat: AVI\nFormat/Info: Audio Video Interleave\nFile size: 716 MiB\nDuration: 1h 42 mn\nOverall bit rate: 979 Kbps\nLanguage: Polish\nSubs: English \nEncoder: Ralf\n\nVideo:\n\nFormat: MPEG-4 Visual\nFormat profile: Advanced Simple@L5\nFormat settings, BVOP: 2\nFormat settings, QPel: No\nFormat settings, GMC: No warppoints\nFormat settings, Matrix: H.263\nMuxing mode: Packed bitstream\nCodec ID: XVID\nDuration: 1h 42 mn\nBit rate: 858 Kbps\nWidth: 688 pixels\nHeight: 288 pixels\nDisplay aspect ratio: 2.35:1\nFrame rate: 23.976 fps\nColor space: YUV\nChroma subsampling: 4:2:0\nBit depth: 8 bits\nScan type: Progressive\nBits/(Pixel*Frame): 0.181\nStream size: 628 MiB (88%)\nWriting library: XviD 64\n\nAudio:\n\nFormat: MPEG Audio\nFormat profile: Layer 3\nCodec ID/Hint: MP3\nDuration: 1h 42mn\nBit rate mode: Constant\nBit rate: 112 Kbps\nChannel(s): 2 channels\nSampling rate: 48.0 KHz\nStream size: 81.9 MiB (11%)\nAlignment: Split accross interleaves\nInterleave, duration: 42 ms (0.58 video frame)\n\n\nMOVIE INFO\n\nJest wczesny poranek w samym sercu Nowego Jorku. W polozonym na 21 \npietrze oknie luksusowego hotelu pojawia sie mezczyzna. Wszystko \nwskazuje na to, ze zamierza popelnic samobojstwo. Gdy na miejscu \nzjawia sie policja, mezczyzna oswiadcza, ze bedzie rozmawial tylko \nz wybrana negocjatorka. Tymczasem w polozonym po sasiedzku budynku \nNowojorskiej Gieldy Diamentow niezauwazona przez nikogo dwojka \nwlamywaczy zmierza po bezcenny diament.\n                                           &lt;a href=&quot;\nhttp://www.imdb.com/title/tt1568338/&quot; rel=&quot;nofollow&quot; target=&quot;_NEW&quot;&gt;\nhttp://www.imdb.com/title/tt1568338/&lt;/a&gt; &lt;a href=&quot;\nhttp://www.filmweb.pl/film/Cz-owiek+na+krawÅ•dzi-2012-280353&quot; rel=&quot;nofollow&quot; target=&quot;_NEW&quot;&gt;\nhttp://www.filmweb.pl/film/Cz-owiek+na+krawÅ•dzi-2012-280353&lt;/a&gt;\n                                               \nSOURCE\n\nREFiNED's 1080p.BluRay.x264 / libero32's AC3 5.1 (THX)\n\nSCREENS\n &lt;a href=&quot;\nhttp://image.bayimg.com/maogaaado.jpg&quot; rel=&quot;nofollow&quot; target=&quot;_NEW&quot;&gt;\nhttp://image.bayimg.com/maogaaado.jpg&lt;/a&gt;\n &lt;a href=&quot;\nhttp://image.bayimg.com/maogdaado.jpg&quot; rel=&quot;nofollow&quot; target=&quot;_NEW&quot;&gt;\nhttp://image.bayimg.com/maogdaado.jpg&lt;/a&gt;\n &lt;a href=&quot;\nhttp://image.bayimg.com/maogeaado.jpg&quot; rel=&quot;nofollow&quot; target=&quot;_NEW&quot;&gt;\nhttp://image.bayimg.com/maogeaado.jpg&lt;/a&gt;\n &lt;a href=&quot;\nhttp://image.bayimg.com/maoggaado.jpg&quot; rel=&quot;nofollow&quot; target=&quot;_NEW&quot;&gt;\nhttp://image.bayimg.com/maoggaado.jpg&lt;/a&gt;\n","torrent":{"xt":"urn:btih:f1e4b4e2796b73304d75172347917af19275293d","amp;dn":"Man.On.A.Ledge.2012.PL.BRRip.XviD-RLF","amp;tr":["udp%3A%2F%2Ftracker.openbittorrent.com%3A80","udp%3A%2F%2Fopen.demonii.com%3A1337","udp%3A%2F%2Ftracker.coppersurfer.tk%3A6969","udp%3A%2F%2Fexodus.desync.com%3A6969"],"infoHash":"f1e4b4e2796b73304d75172347917af19275293d","infoHashBuffer":{"type":"Buffer","data":[241,228,180,226,121,107,115,48,77,117,23,35,71,145,122,241,146,117,41,61]},"announce":[],"urlList":[]}}